Coordinates
version=1
nRows=30
nColumns=23
inDegrees=yes

Units are S.I. units (second, meters, Newtons, ...)
If the header above contains a line with 'inDegrees', this indicates whether rotational values are in degrees (yes) or radians (no).

endheader
time	pelvis_tilt	pelvis_list	pelvis_rotation	pelvis_tx	pelvis_ty	pelvis_tz	hip_flexion_r	hip_adduction_r	hip_rotation_r	knee_angle_r	knee_angle_r_beta	ankle_angle_r	subtalar_angle_r	mtp_angle_r	hip_flexion_l	hip_adduction_l	hip_rotation_l	knee_angle_l	knee_angle_l_beta	ankle_angle_l	subtalar_angle_l	mtp_angle_l
     15.00000000	     -0.07518172	     -6.82728884	     -8.17871025	      2.31975359	      1.00036769	      1.12430926	     22.15211537	     11.36323235	     -1.16980235	     45.11911024	      0.78747703	     18.62329413	     -1.17142470	      0.00000000	      4.52541223	    -12.20095716	     -4.82838036	    104.02461781	      1.81557208	    -18.92521443	    -11.29700929	      0.00000000
     15.00666667	     -0.04949523	     -6.40497854	     -8.11087252	      2.31680966	      0.99654491	      1.12386457	     21.63516771	     11.02363605	     -0.54991864	     46.70201509	      0.81510393	     20.51678008	     -1.55234886	      0.00000000	      7.00086448	    -12.00547079	     -4.08887814	    106.16490032	      1.85292706	    -17.92772980	    -11.65579978	      0.00000000
     15.01333333	      0.52471568	     -6.32123466	     -7.94038988	      2.31436441	      0.99447296	      1.12337367	     20.04427295	     10.96224010	      0.08504712	     47.51300242	      0.82925833	     22.19382351	     -1.98735812	      0.00000000	      8.75541212	    -12.10588758	     -3.38910954	    107.82807144	      1.88195487	    -16.88290704	    -12.01216863	      0.00000000
     15.02000000	      0.11999337	     -5.62244731	     -7.89382339	      2.31173548	      0.99163187	      1.12306076	     19.54833822	     10.32230498	      0.70224992	     48.33858668	      0.84366749	     23.89102114	     -2.03346243	      0.00000000	     11.76077259	    -11.60325157	     -2.83403080	    109.35392172	      1.90858598	    -15.68435965	    -11.98589453	      0.00000000
     15.02666667	      0.41242056	     -5.30211110	     -7.80311005	      2.30981739	      0.99085839	      1.12280449	     17.80857636	     10.00074043	      1.38638753	     48.37064748	      0.84422706	     25.22294147	     -2.23054075	      0.00000000	     13.76512730	    -11.43578543	     -2.42735288	    110.31846953	      1.92542052	    -14.48946395	    -12.26586931	      0.00000000
     15.03333333	      0.19246104	     -4.64625693	     -7.72426777	      2.30812807	      0.99010676	      1.12259524	     16.55662125	      9.26974439	      1.88132933	     48.24596851	      0.84205100	     26.43437189	     -2.00579132	      0.00000000	     16.35814131	    -10.90551646	     -2.16560309	    111.00554100	      1.93741218	    -13.19572026	    -12.30375260	      0.00000000
     15.04000000	      0.24397589	     -4.16820293	     -7.68005243	      2.30701129	      0.99066019	      1.12262491	     14.70127631	      8.73156023	      2.50362754	     47.58853883	      0.83057669	     27.20771804	     -2.00844124	      0.00000000	     18.43859171	    -10.56518380	     -2.08398691	    111.22786761	      1.94129251	    -11.89683855	    -12.64354136	      0.00000000
     15.04666667	      0.20938425	     -3.59926870	     -7.56300232	      2.30644397	      0.99193820	      1.12258231	     12.78595821	      8.00429287	      2.92278233	     46.62297108	      0.81372435	     27.70168830	     -1.91177232	      0.00000000	     20.50362229	    -10.10746780	     -2.13212967	    111.07547358	      1.93863273	    -10.53499849	    -12.89745554	      0.00000000
     15.05333333	      0.40715203	     -3.04379718	     -7.30655263	      2.30658399	      0.99431824	      1.12238163	     10.42343532	      7.11827756	      2.99525893	     45.26312758	      0.78999061	     27.93106432	     -1.33763297	      0.00000000	     22.13761657	     -9.54189412	     -2.22455185	    110.49792153	      1.92855255	     -9.24881121	    -13.21832340	      0.00000000
     15.06000000	      0.29528805	     -2.35718720	     -7.15569384	      2.30694484	      0.99695948	      1.12236493	      8.35878865	      6.18803240	      3.21881704	     43.76989464	      0.76392877	     27.85794111	     -1.01443051	      0.00000000	     23.96805642	     -8.90309338	     -2.56631572	    109.60769212	      1.91301511	     -7.95870151	    -13.64480599	      0.00000000
     15.06666667	     -0.18404508	     -1.71357519	     -7.11442462	      2.30752365	      0.99974592	      1.12256135	      6.63924470	      5.42478305	      3.65085233	     42.13364461	      0.73537082	     27.51612891	     -0.54214735	      0.00000000	     26.04525243	     -8.41174457	     -3.07345563	    108.44774908	      1.89277029	     -6.80259745	    -14.04701123	      0.00000000
     15.07333333	      0.34955437	     -0.90176227	     -6.59152935	      2.30930097	      1.00451557	      1.12183446	      3.61443871	      3.98562291	      2.93052416	     40.01282322	      0.69835551	     26.62888214	      0.37219442	      0.00000000	     26.77725032	     -7.29883997	     -3.45670660	    106.73811909	      1.86293162	     -5.74043199	    -14.79114528	      0.00000000
     15.08000000	      0.37245349	     -0.25662336	     -6.30839323	      2.31103297	      1.00910753	      1.12152559	      1.14613720	      2.94704652	      2.57921462	     37.83804354	      0.66039844	     25.22741170	      1.39012200	      0.00000000	     27.90401890	     -6.57147539	     -4.00973139	    104.85170071	      1.83000740	     -4.62513930	    -15.41635893	      0.00000000
     15.08666667	      0.24139956	      0.47500845	     -5.94633479	      2.31309864	      1.01396143	      1.12101490	     -1.16804109	      1.85461129	      2.11918391	     35.53630685	      0.62022556	     23.13287529	      2.03243274	      0.00000000	     29.05789937	     -5.68013094	     -4.57759013	    102.68799764	      1.79224366	     -3.65566497	    -16.04281797	      0.00000000
     15.09333333	      0.08062571	      1.19069321	     -5.50139147	      2.31551144	      1.01917043	      1.12031617	     -3.48233155	      0.79612523	      1.48318115	     33.08784701	      0.57749187	     20.40150385	      2.57294459	      0.00000000	     30.07916670	     -4.72487927	     -5.10492663	    100.25710782	      1.74981663	     -2.74768860	    -16.68134285	      0.00000000
     15.10000000	     -0.05526218	      1.79909954	     -5.08452095	      2.31819779	      1.02474723	      1.11969555	     -5.86292890	     -0.09235989	      0.84255077	     30.47327280	      0.53185894	     17.00823506	      3.14687126	      0.00000000	     30.87649431	     -3.89867303	     -5.64843180	     97.57662428	      1.70303337	     -1.88504680	    -17.24307350	      0.00000000
     15.10666667	     -0.25997806	      2.36684722	     -4.61702966	      2.32113862	      1.03044340	      1.11894777	     -8.15107601	     -0.89672018	      0.07658068	     27.80585177	      0.48530366	     13.09926795	      3.58877448	      0.00000000	     31.59530173	     -3.06765970	     -6.14113542	     94.68185582	      1.65251013	     -1.07214296	    -17.74800767	      0.00000000
     15.11333333	     -0.56043172	      2.86681280	     -4.13793657	      2.32420141	      1.03617626	      1.11810499	    -10.27480905	     -1.59113459	     -0.78393089	     25.17059200	      0.43930971	      8.81040153	      4.02169129	      0.00000000	     32.26857271	     -2.28507106	     -6.60037333	     91.58861796	      1.59852294	     -0.29032851	    -18.18703426	      0.00000000
     15.12000000	     -0.84290919	      3.22111258	     -3.68525432	      2.32735008	      1.04206866	      1.11728797	    -12.39837668	     -2.03928095	     -1.39779116	     22.46850320	      0.39214936	      4.14553294	      4.03473378	      0.00000000	     32.76673436	     -1.66038723	     -7.02278870	     88.30681018	      1.54124459	      0.51522345	    -18.44291855	      0.00000000
     15.12666667	     -1.35480491	      3.57424890	     -3.10131520	      2.33059363	      1.04751325	      1.11620541	    -14.06350299	     -2.52855365	     -2.65206455	     20.18195093	      0.35224149	     -0.29601987	      4.73836519	      0.00000000	     33.41638595	     -0.93881049	     -7.31579745	     84.88060783	      1.48144608	      1.20385291	    -18.73117408	      0.00000000
     15.13333333	     -1.57476541	      3.68886979	     -2.70457889	      2.33381532	      1.05333479	      1.11543164	    -16.06142206	     -2.65486400	     -3.13098291	     17.74659284	      0.30973648	     -4.82438286	      4.64278081	      0.00000000	     33.56727472	     -0.57039250	     -7.67048002	     81.27096952	      1.41844600	      1.89250492	    -18.84899663	      0.00000000
     15.14000000	     -2.14456299	      3.80625783	     -2.11402767	      2.33698361	      1.05839476	      1.11430763	    -17.37204853	     -2.81893372	     -4.31748403	     15.99338302	      0.27913719	     -8.73356261	      5.12613068	      0.00000000	     34.04036937	     -0.05060557	     -7.82462913	     77.56556888	      1.35377456	      2.59745844	    -18.77980719	      0.00000000
     15.14666667	     -2.54754077	      3.79584930	     -1.58975758	      2.34002624	      1.06335742	      1.11329008	    -18.72910191	     -2.81397383	     -5.25150865	     14.50060715	      0.25308334	    -12.18789074	      5.25752875	      0.00000000	     34.21307361	      0.29827644	     -7.99745385	     73.72062032	      1.28666755	      3.26227462	    -18.58017043	      0.00000000
     15.15333333	     -3.05985050	      3.70703429	     -1.07549747	      2.34282165	      1.06773266	      1.11230768	    -19.65871379	     -2.74903364	     -6.28442308	     13.67896441	      0.23874297	    -14.97340839	      5.21272446	      0.00000000	     34.43249804	      0.57598056	     -8.13349835	     69.79300028	      1.21811765	      3.91193860	    -18.09943686	      0.00000000
     15.16000000	     -3.69332659	      3.51065475	     -0.60652628	      2.34534847	      1.07148107	      1.11144169	    -20.14189605	     -2.61830482	     -7.36332295	     13.55474798	      0.23657498	    -17.05880817	      5.07883262	      0.00000000	     34.71846592	      0.71837646	     -8.27733995	     65.79682146	      1.14837117	      4.54728807	    -17.45134591	      0.00000000
     15.16666667	     -4.27354765	      3.24349275	     -0.10042770	      2.34760221	      1.07464245	      1.11053060	    -20.42450564	     -2.44264967	     -8.58797629	     14.05006260	      0.24521985	    -18.57312555	      4.64665846	      0.00000000	     34.89270982	      0.83691292	     -8.35266061	     61.74374103	      1.07763157	      5.14721862	    -16.60296356	      0.00000000
     15.17333333	     -4.70959928	      3.09164566	      0.50783688	      2.34970472	      1.07732091	      1.10946763	    -20.67092300	     -2.38254376	     -9.98054830	     15.09083406	      0.26338474	    -19.41630506	      3.96121968	      0.00000000	     34.83235114	      1.16647225	     -8.39200090	     57.59072643	      1.00514779	      5.84727002	    -15.44065444	      0.00000000
     15.18000000	     -5.16124047	      3.02682254	      1.01466967	      2.35151721	      1.07926096	      1.10854137	    -20.55264996	     -2.63372572	    -11.92445928	     16.98827512	      0.29650134	    -19.56852008	      4.00456270	      0.00000000	     34.72023587	      1.49063999	     -8.66015856	     53.39841100	      0.93197809	      6.65411225	    -13.81942587	      0.00000000
     15.18666667	     -5.75755957	      3.01546082	      1.56631371	      2.35299028	      1.08035608	      1.10744053	    -20.13168891	     -2.98484632	    -13.71202817	     19.31861862	      0.33717350	    -19.54268729	      3.36123422	      0.00000000	     34.71852985	      1.94975113	     -8.87998847	     49.16949409	      0.85816956	      7.34967841	    -12.15728481	      0.00000000
     15.19333333	     -6.29589431	      3.11351359	      2.08185195	      2.35422150	      1.08090750	      1.10630081	    -19.69158210	     -3.48958932	    -15.24497031	     21.92114854	      0.38259622	    -19.34461983	      2.32152346	      0.00000000	     34.57622928	      2.51361439	     -9.20790337	     44.89848071	      0.78362632	      8.04985956	    -10.22448114	      0.00000000
